<svg width="235" height="147" viewBox="0 0 235 147" fill="none" xmlns="http://www.w3.org/2000/svg">
<path fill-rule="evenodd" clip-rule="evenodd" d="M198.704 25.4982C199.112 26.7625 199.521 28.0266 199.929 29.291C200.19 30.1003 200.452 30.9097 200.713 31.7192C200.732 31.7782 200.746 31.8386 200.766 31.8974C200.783 31.9496 200.783 31.9978 200.735 32.0309C200.682 32.0676 200.626 32.0599 200.582 32.0159C200.494 31.9284 200.406 31.8397 200.324 31.7468C200.08 31.473 199.841 31.1961 199.598 30.922C199.112 30.3739 198.625 29.8265 198.137 29.2795C197.794 28.8948 197.449 28.5115 197.106 28.1273C197.015 28.0255 196.924 27.9234 196.835 27.82C196.776 27.752 196.721 27.7335 196.649 27.8073C196.377 28.0884 196.101 28.3667 195.827 28.6467C195.788 28.6866 195.754 28.7316 195.715 28.7716C195.162 29.3429 194.605 29.9118 194.054 30.4852C193.593 30.9642 193.137 31.4486 192.679 31.9298C192.64 31.97 192.601 32.0142 192.553 32.0395C192.457 32.0908 192.378 32.0344 192.388 31.925C192.392 31.8828 192.409 31.8411 192.424 31.8008C192.823 30.7438 193.223 29.6871 193.623 28.6305C194.004 27.6263 194.386 26.6224 194.768 25.6185C194.837 25.4374 194.839 25.436 194.675 25.3408C193.799 24.8326 192.923 24.326 192.047 23.8177C191.328 23.3996 190.609 22.9799 189.89 22.561C189.643 22.4172 189.396 22.2738 189.149 22.1302C189.128 22.1178 189.105 22.1068 189.084 22.0934C189.028 22.0577 188.988 22.0096 189.003 21.9398C189.018 21.8671 189.084 21.8525 189.144 21.836C189.156 21.8327 189.169 21.8319 189.181 21.8323C189.603 21.8433 190.026 21.8105 190.448 21.8534C190.497 21.8584 190.547 21.8579 190.597 21.858C191.666 21.8598 192.736 21.8615 193.805 21.8631C193.836 21.8632 193.867 21.8649 193.898 21.8625C193.996 21.8547 194.01 21.8388 193.972 21.7469C193.87 21.5 193.764 21.2552 193.66 21.0093C193.108 19.7054 192.557 18.4014 192.006 17.0973C191.985 17.0459 191.965 16.9934 191.95 16.9397C191.936 16.8881 191.947 16.8396 191.996 16.8095C192.044 16.7806 192.094 16.7841 192.135 16.8193C192.178 16.8552 192.217 16.8954 192.253 16.9377C192.48 17.2019 192.705 17.4664 192.929 17.7322C193.237 18.0976 193.545 18.464 193.851 18.8306C194.278 19.34 194.703 19.8503 195.129 20.3598C195.308 20.5735 195.488 20.786 195.673 21.0061C195.742 20.9651 195.74 20.912 195.752 20.8649C195.998 19.8971 196.244 18.9293 196.493 17.962C196.73 17.0369 196.97 16.1123 197.209 15.1874C197.215 15.1634 197.226 15.1407 197.232 15.1167C197.251 15.0424 197.289 14.9889 197.374 15.002C197.453 15.0141 197.487 15.0718 197.498 15.1457C197.548 15.5015 197.598 15.8572 197.649 16.213C197.707 16.6239 197.767 17.0346 197.824 17.4457C197.88 17.8507 197.931 18.2564 197.988 18.6614C198.044 19.0664 198.104 19.4707 198.16 19.8756C198.204 20.1886 198.244 20.5021 198.285 20.8153C198.287 20.8276 198.286 20.8403 198.287 20.8526C198.304 20.965 198.332 20.9832 198.431 20.9322C198.541 20.875 198.648 20.8115 198.756 20.7493C199.675 20.2174 200.593 19.6843 201.513 19.153C202.018 18.8609 202.525 18.5716 203.032 18.2813C203.064 18.2628 203.097 18.2458 203.132 18.232C203.193 18.2073 203.241 18.2334 203.279 18.2802C203.313 18.3226 203.322 18.3721 203.288 18.4183C203.231 18.4987 203.17 18.5776 203.108 18.6548C202.372 19.5687 201.636 20.482 200.9 21.396C200.756 21.5748 200.615 21.756 200.472 21.9359C200.375 22.0578 200.377 22.0923 200.503 22.1949C200.724 22.3753 200.949 22.5513 201.17 22.732C201.622 23.1014 202.072 23.4729 202.523 23.8431C202.964 24.2053 203.406 24.567 203.848 24.9286C203.924 24.9908 204.031 25.0441 203.991 25.164C203.95 25.288 203.829 25.256 203.734 25.2561" fill="#B2BFB3"/>
<text fill="#272B30" xml:space="preserve" style="white-space: pre" font-family="Lora" font-size="128" font-weight="bold" letter-spacing="0em"><tspan x="3.3125" y="124.848">404</tspan></text>
<path fill-rule="evenodd" clip-rule="evenodd" d="M136.618 74.9115C136.618 74.9115 135.048 84.7676 136.569 87.7049C137.781 90.0438 144.926 93.2427 144.926 93.2427L146.206 100.109L119.676 102.832C116.606 102.151 105.493 99.3034 109.041 94.8525C112.587 90.4014 120.102 89.1741 121.323 87.2011C123.668 83.4137 124.097 75.7139 124.032 72.8056C124.032 72.0833 136.618 74.9115 136.618 74.9115Z" fill="#8D5524"/>
<path fill-rule="evenodd" clip-rule="evenodd" d="M141.495 91.3101C140.954 92.3147 138.42 97.0275 135.385 97.3556C130.913 97.8391 124.546 94.6153 119.903 92.2642C117.643 91.1203 115.792 90.1831 114.766 89.9798C114.244 89.8767 106.501 92.2717 101.607 96.3218C100.142 97.5341 95.9337 101.61 96.7093 107.476C96.8107 108.242 96.3015 110.863 95.6982 113.971C94.7511 118.849 93.5714 124.924 94.1559 126.898C95.9045 132.802 102.792 133.152 110.844 133.502C126.91 134.198 141.661 133.736 147.256 133.561C148.388 133.525 149.145 133.502 149.463 133.502C158.03 133.502 161.157 133.502 164 129.14C160.482 120.074 156.498 108.867 155.882 105.873C154.387 98.6079 149.994 95.9117 148.372 94.9158C148.346 94.8999 148.321 94.8847 148.297 94.8697C148.171 94.7884 148.044 94.7069 147.917 94.6255C147.895 94.6099 147.875 94.5949 147.857 94.5807C147.857 94.583 147.857 94.5851 147.857 94.5874C145.003 92.7767 141.669 91.0386 141.598 91.125C141.587 91.1374 141.553 91.2024 141.495 91.3101Z" fill="#FFC857"/>
<path fill-rule="evenodd" clip-rule="evenodd" d="M153.601 113.955C154.159 116.182 154.166 118.059 154.059 120.344C153.79 124.389 153.187 124.086 152.231 128.939C151.744 131.411 151.472 132.913 151.316 133.301C151.105 133.829 151.168 132.348 151.756 128.855C152.344 124.882 152.958 125.327 153.336 121.359C153.714 117.391 153.581 116.837 152.941 113.903C152.361 111.318 151.455 109.019 150.679 106.48C150.634 106.126 149.736 103.907 150.191 104.236C151.25 107.479 152.747 110.647 153.601 113.955Z" fill="black"/>
<path fill-rule="evenodd" clip-rule="evenodd" d="M116.49 107.336C115.77 113.721 114.697 120.065 113.294 126.336C113.084 126.841 111.485 133.734 111.414 132.52C111.405 132.362 111.436 132.046 111.469 131.89C112.709 125.997 113.993 119.533 115.056 113.608L116.156 107.29C116.186 107.087 116.517 107.119 116.49 107.336Z" fill="black"/>
<path fill-rule="evenodd" clip-rule="evenodd" d="M145.533 48.0532C145.533 48.0532 145.995 45.8695 149.399 46.1172C154.903 46.5174 155.896 51.8888 154.633 57.1515C153.744 60.8585 152.556 63.7793 152.93 65.8329C153.648 69.7669 155.679 69.9515 157.247 74.2666C159.737 81.1181 153.471 81.6177 153.41 82.8473C153.118 88.8054 151.166 91.5464 147.735 92.8499C142.677 94.7719 137.368 92.2536 134.684 87.5671C132.437 83.6432 134.684 79.3388 134.684 79.3388L146.998 67.4731L145.533 48.0532Z" fill="#0F101E"/>
<path fill-rule="evenodd" clip-rule="evenodd" d="M144.748 45.6166C144.748 45.6166 148.353 47.39 150.055 52.3578C151.012 55.1512 150.647 58.5816 151.179 63.4155C152.501 75.4163 148.963 84.7801 142.387 84.5558C134.578 84.2891 127.821 79.6251 124.072 76.9135C120.323 74.2014 119.635 70.8145 119.597 65.452C119.56 60.0896 119.755 48.564 123.216 48.225C126.678 47.8861 137.733 40.2962 144.748 45.6166Z" fill="#8D5524"/>
<path fill-rule="evenodd" clip-rule="evenodd" d="M121.683 67.9232C121.688 69.7671 129.046 74.6534 125.134 81.5422C127.79 84.3041 127.041 95.18 115.619 93.6349C110.607 100.339 99.9809 97.5932 101.209 90.4127C98.0698 89.8025 96.5334 84.6742 96.972 81.7759C98.1086 74.2657 105.264 73.331 105.264 73.331C104.366 64.7026 112.234 66.7489 111.141 60.8093C110.06 54.9364 111.24 46.792 117.42 45.8362C118.263 37.3953 129.162 33.5903 136.816 37.6037C138.624 35.9488 150.961 34.0083 150.702 45.3142C150.615 49.1534 147.634 54.295 143.292 55.1727C140.228 55.7924 134.795 54.7123 132.932 56.9989C130.383 60.1267 129.949 60.8946 126.08 62.8689C124.58 63.634 123.518 62.8689 123.518 62.8689C123.518 62.8689 121.669 63.3991 121.683 67.9232Z" fill="#0F101E"/>
<path fill-rule="evenodd" clip-rule="evenodd" d="M123.464 69.801C121.803 70.7738 119.531 69.5568 118.215 68.6698C115.362 66.7475 115.473 63.6317 117.764 61.951C119.437 60.7233 121.772 60.9708 123.89 62.7605C125.716 64.303 125.341 68.702 123.464 69.801Z" fill="#8D5524"/>
<path fill-rule="evenodd" clip-rule="evenodd" d="M119.098 63.5976C120.285 63.3803 121.617 63.5366 122.462 64.7838C122.847 65.3537 122.854 66.0031 123.053 66.656C123.075 66.7273 122.846 66.8962 122.521 66.1111C122.099 65.0906 121.336 64.4473 120.671 64.1678C119.806 63.8042 118.765 64.0498 118.609 63.8984C118.447 63.7406 118.965 63.6219 119.098 63.5976Z" fill="black"/>
<path fill-rule="evenodd" clip-rule="evenodd" d="M122.346 65.8C121.746 65.4906 120.601 66.0437 120.555 65.9252C120.409 65.5586 121.952 64.9185 122.458 65.331C122.83 65.6338 122.773 66.0198 122.346 65.8Z" fill="black"/>
<path fill-rule="evenodd" clip-rule="evenodd" d="M127.848 79.3915C128.054 79.4813 129.151 80.1138 129.634 80.3711C130.52 80.8434 131.412 81.3096 132.315 81.7353C132.78 81.9559 133.899 82.3466 133.749 82.4777C133.459 82.7292 130.942 81.7889 129.35 80.7389C128.503 80.1809 127.495 79.2387 127.848 79.3915Z" fill="#0F101E"/>
<path fill-rule="evenodd" clip-rule="evenodd" d="M131.016 63.8035C131.223 63.5937 133.696 61.7834 135.899 62.7052C138.058 63.6093 139.07 65.0203 139.122 65.5262C139.185 66.1284 137.794 67.5085 135.994 67.4379C133.127 67.3248 130.798 64.0239 131.016 63.8035Z" fill="#F5F5F5"/>
<path fill-rule="evenodd" clip-rule="evenodd" d="M138.002 64.9201C138.002 65.9985 137.322 66.7255 136.668 66.7542C135.49 66.8061 134.899 66.0338 134.959 64.9367C135.018 63.8613 135.899 63.2476 136.712 63.4C137.354 63.5203 138.002 64.083 138.002 64.9201Z" fill="#0F101E"/>
<path fill-rule="evenodd" clip-rule="evenodd" d="M138.34 61.4266C136.595 61.181 135.061 60.6321 133.368 60.1477C132.146 59.7981 130.892 59.8217 129.568 59.4705C128.426 59.1674 129.935 58.1116 130.421 57.8679C131.472 57.3155 132.749 57.4536 133.935 57.7469C135.03 58.0292 135.994 58.489 136.888 59.0679C137.402 59.4011 139.589 61.6026 138.34 61.4266Z" fill="#0F101E"/>
<path fill-rule="evenodd" clip-rule="evenodd" d="M139.119 65.5745C138.468 64.2115 137.318 63.1648 135.908 62.8152C134.498 62.4654 132.827 62.8129 131.556 63.6282C131.367 63.749 131.161 63.9144 130.92 63.9007C130.657 63.9313 130.176 63.4578 130.296 63.3515C130.582 63.097 130.612 63.523 130.727 63.5735C130.881 63.6819 130.977 63.6971 131.108 63.6025C131.56 63.2931 132.025 62.9311 132.536 62.7115C134.986 61.5314 138.279 62.7979 139.124 65.4018C139.147 65.4871 139.149 65.6605 139.119 65.5745Z" fill="#0F101E"/>
<path fill-rule="evenodd" clip-rule="evenodd" d="M144.694 64.4298C144.678 64.8097 145.652 65.9531 147.352 65.7842C149.369 65.5842 150.005 64.1397 150.271 63.3616C150.539 62.5763 150.571 62.035 150.508 61.8746C150.412 61.6344 148.071 60.7969 146.668 61.8756C145.142 63.0482 144.86 64.0497 144.694 64.4298Z" fill="#F5F5F5"/>
<path fill-rule="evenodd" clip-rule="evenodd" d="M145.98 63.7934C145.843 64.8127 146.578 65.3596 147.034 65.3755C148.08 65.4122 148.407 64.7513 148.443 63.8285C148.464 63.2788 147.984 62.4581 147.257 62.4933C146.602 62.525 146.079 63.0505 145.98 63.7934Z" fill="#0F101E"/>
<path fill-rule="evenodd" clip-rule="evenodd" d="M144.541 59.9844C144.696 59.3752 145.018 58.8985 145.42 58.3826C146.389 57.1389 147.868 56.7669 149.161 57.0473C149.349 57.0877 150.09 57.4238 150.315 57.574C150.914 57.9734 150.355 58.4129 149.792 58.4856C148.202 58.6908 145.777 60.2543 145.392 60.5364C144.63 61.0951 144.412 60.488 144.541 59.9844Z" fill="#0F101E"/>
<path fill-rule="evenodd" clip-rule="evenodd" d="M144.696 64.4128C145.399 61.7515 148.057 60.3423 150.534 61.776L150.508 61.7663C150.601 61.7366 150.603 61.5022 150.722 61.521C150.764 61.5339 150.782 61.5852 150.758 61.6215C150.678 61.7169 150.629 61.9131 150.467 61.8744C148.141 60.7546 145.718 62.1837 144.812 64.4466C144.791 64.5172 144.675 64.4863 144.696 64.4128Z" fill="#0F101E"/>
<path fill-rule="evenodd" clip-rule="evenodd" d="M140.036 77.3583C141.082 75.0589 143.293 74.4214 144.694 74.6399C146.096 74.8586 146.706 76.0539 145.396 76.206C143.573 76.418 141.766 77.3394 140.288 78.1701C139.895 78.4458 139.853 77.7994 140.036 77.3583Z" fill="#0F101E"/>
<path fill-rule="evenodd" clip-rule="evenodd" d="M143.165 65.5595C143.302 65.8803 143.549 66.5732 143.775 67.0151C144.528 68.4894 146.1 70.1646 144.978 71.3748C144.375 72.0249 140.71 71.6826 142.199 71.1456C142.787 70.9339 144.139 71.1755 144.226 70.4476C144.259 70.1737 142.981 67.1298 142.922 66.0152C142.903 65.6684 143.032 65.245 143.165 65.5595Z" fill="#0F101E"/>
<path fill-rule="evenodd" clip-rule="evenodd" d="M141.075 62.5279C141.075 66.0771 138.198 68.9539 134.649 68.9539C131.1 68.9539 128.223 66.0771 128.223 62.5279C128.223 58.9786 131.1 56.1016 134.649 56.1016C138.198 56.1016 141.075 58.9786 141.075 62.5279Z" fill="#0F101E"/>
<path fill-rule="evenodd" clip-rule="evenodd" d="M154.157 61.2399C154.157 64.2082 151.751 66.6145 148.783 66.6145C145.814 66.6145 143.408 64.2082 143.408 61.2399C143.408 58.2715 145.814 55.8652 148.783 55.8652C151.751 55.8652 154.157 58.2715 154.157 61.2399Z" fill="#0F101E"/>
<path fill-rule="evenodd" clip-rule="evenodd" d="M140.905 59.2389C141.962 58.9364 143.078 58.8149 144.175 58.981C144.431 59.0197 144.609 59.274 144.573 59.5489C144.537 59.8238 144.3 60.0154 144.045 59.9767C143.086 59.8316 142.091 59.9399 141.146 60.2106C140.956 60.2648 140.782 60.3221 140.625 60.3797L140.495 60.429L140.376 60.4773L140.322 60.5008C140.085 60.6107 139.81 60.4931 139.708 60.2382C139.606 59.9832 139.715 59.6874 139.952 59.5775L139.99 59.5606L140.073 59.5243L140.17 59.4852L140.278 59.4436C140.297 59.4365 140.317 59.4293 140.337 59.422L140.462 59.3777C140.484 59.3702 140.507 59.3626 140.53 59.355L140.672 59.3089L140.825 59.2623C140.851 59.2545 140.878 59.2467 140.905 59.2389Z" fill="#0F101E"/>
<path fill-rule="evenodd" clip-rule="evenodd" d="M120.87 60.3028C123.076 60.354 128.137 61.0752 128.426 61.1625C128.614 61.2193 128.725 61.4359 128.674 61.6464C128.624 61.8569 128.43 61.9815 128.243 61.9248C127.921 61.8276 123.3 61.1625 120.85 61.092C120.655 61.0863 120.502 60.9036 120.508 60.6857C120.514 60.4678 120.675 60.2983 120.87 60.3028Z" fill="#0F101E"/>
<path fill-rule="evenodd" clip-rule="evenodd" d="M130.088 62.2177C130.088 60.3672 132.217 57.9725 133.557 58.2165C133.708 58.2438 133.412 58.1958 132.115 59.6949C131.179 60.7778 130.907 62.5241 130.722 62.7152C130.392 63.0559 130.088 62.8234 130.088 62.2177Z" fill="#F5F5F5"/>
<path fill-rule="evenodd" clip-rule="evenodd" d="M144.822 60.9914C144.94 59.6096 145.769 58.3646 146.587 57.6347C147.151 57.1322 147.848 56.9358 147.848 57.0787C147.848 57.1558 147.502 57.0099 146.587 58.211C145.713 59.3594 145.388 61.6509 145.209 61.8411C144.889 62.1803 144.771 61.59 144.822 60.9914Z" fill="#F5F5F5"/>
<path fill-rule="evenodd" clip-rule="evenodd" d="M231.469 6.99881C231.742 7.84164 232.014 8.68442 232.286 9.5273C232.46 10.0668 232.634 10.6065 232.808 11.1461C232.821 11.1854 232.831 11.2258 232.844 11.2649C232.856 11.2997 232.855 11.3319 232.823 11.354C232.788 11.3784 232.751 11.3733 232.721 11.344C232.662 11.2856 232.604 11.2264 232.549 11.1646C232.387 10.982 232.227 10.7974 232.065 10.6147C231.741 10.2493 231.416 9.88433 231.091 9.51969C230.863 9.26318 230.633 9.00767 230.404 8.75153C230.343 8.6837 230.282 8.61561 230.223 8.54669C230.184 8.50135 230.147 8.48901 230.099 8.53819C229.918 8.72562 229.734 8.91113 229.551 9.09783C229.525 9.12441 229.503 9.15442 229.477 9.18105C229.108 9.56192 228.737 9.94123 228.369 10.3234C228.062 10.6428 227.758 10.9657 227.452 11.2865C227.427 11.3133 227.401 11.3428 227.369 11.3597C227.305 11.3939 227.252 11.3563 227.259 11.2833C227.261 11.2552 227.272 11.2274 227.283 11.2005C227.549 10.4959 227.815 9.79137 228.082 9.087C228.336 8.4175 228.591 7.74826 228.845 7.07903C228.891 6.95829 228.893 6.95731 228.783 6.89388C228.2 6.55504 227.615 6.21733 227.032 5.87844C226.552 5.59976 226.073 5.31994 225.593 5.04064C225.429 4.94477 225.264 4.84917 225.1 4.75346C225.085 4.74517 225.07 4.73786 225.056 4.72895C225.019 4.70516 224.992 4.67309 225.002 4.62655C225.012 4.57805 225.056 4.56836 225.096 4.55732C225.104 4.55515 225.113 4.55463 225.121 4.55489C225.402 4.5622 225.684 4.54033 225.965 4.56893C225.998 4.5723 226.031 4.57194 226.065 4.57199C226.777 4.57323 227.49 4.57432 228.203 4.57541C228.224 4.57546 228.245 4.5766 228.266 4.57499C228.331 4.56981 228.34 4.55919 228.315 4.49794C228.247 4.33336 228.176 4.17014 228.106 4.00618C227.739 3.13692 227.371 2.26761 227.004 1.3982C226.99 1.36395 226.976 1.32892 226.967 1.29316C226.957 1.25876 226.965 1.22642 226.998 1.20632C227.029 1.18704 227.062 1.18942 227.09 1.21284C227.118 1.23678 227.145 1.26363 227.169 1.29182C227.32 1.46795 227.47 1.64424 227.62 1.82145C227.825 2.06505 228.03 2.30933 228.234 2.5537C228.518 2.89332 228.802 3.23351 229.086 3.57318C229.205 3.71563 229.325 3.85731 229.449 4.00406C229.495 3.97675 229.493 3.94136 229.501 3.9099C229.666 3.26476 229.83 2.61957 229.995 1.97468C230.153 1.35794 230.313 0.741502 230.473 0.124964C230.477 0.108952 230.484 0.093769 230.488 0.0778089C230.501 0.0282703 230.526 -0.0074328 230.583 0.00132455C230.635 0.00940826 230.658 0.0478577 230.665 0.0971372C230.699 0.334311 230.732 0.571485 230.766 0.808659C230.805 1.08257 230.845 1.35638 230.882 1.63045C230.92 1.90048 230.954 2.17092 230.992 2.44095C231.029 2.71092 231.069 2.98048 231.107 3.25041C231.136 3.45908 231.162 3.66806 231.19 3.87689C231.191 3.88508 231.19 3.89353 231.192 3.90171C231.203 3.97664 231.222 3.98882 231.287 3.95478C231.361 3.91669 231.432 3.87435 231.504 3.83285C232.116 3.47825 232.729 3.12288 233.342 2.7687C233.679 2.57397 234.017 2.38104 234.354 2.18755C234.376 2.17522 234.398 2.16387 234.421 2.15465C234.462 2.13822 234.494 2.15558 234.519 2.18683C234.542 2.21507 234.548 2.24808 234.526 2.27886C234.487 2.33244 234.447 2.38509 234.405 2.43654C233.915 3.04583 233.424 3.6547 232.933 4.26398C232.837 4.38321 232.743 4.504 232.648 4.62396C232.583 4.70521 232.585 4.72822 232.668 4.79657C232.816 4.91689 232.966 5.03421 233.113 5.15464C233.414 5.40093 233.714 5.64863 234.015 5.89539C234.31 6.13686 234.604 6.37797 234.899 6.61908C234.949 6.66054 235.021 6.69609 234.994 6.77599C234.967 6.85864 234.886 6.83734 234.823 6.8374" fill="#FFDE9A"/>
<path fill-rule="evenodd" clip-rule="evenodd" d="M73.4693 57.9988C73.7416 58.8416 74.0139 59.6844 74.2861 60.5273C74.4603 61.0668 74.6345 61.6065 74.8085 62.1461C74.8211 62.1854 74.8309 62.2258 74.8441 62.2649C74.8557 62.2997 74.8552 62.3319 74.8233 62.354C74.7881 62.3784 74.7508 62.3733 74.7213 62.344C74.6625 62.2856 74.6042 62.2264 74.5492 62.1646C74.387 61.982 74.2271 61.7974 74.0652 61.6147C73.741 61.2493 73.4164 60.8843 73.0913 60.5197C72.8627 60.2632 72.6328 60.0077 72.4038 59.7515C72.3431 59.6837 72.2825 59.6156 72.223 59.5467C72.1838 59.5013 72.1472 59.489 72.0995 59.5382C71.9177 59.7256 71.7339 59.9111 71.5514 60.0978C71.5254 60.1244 71.5028 60.1544 71.477 60.1811C71.1078 60.5619 70.737 60.9412 70.3692 61.3234C70.0619 61.6428 69.7583 61.9657 69.4524 62.2865C69.4269 62.3133 69.4008 62.3428 69.3689 62.3597C69.3046 62.3939 69.2518 62.3563 69.2586 62.2833C69.2612 62.2552 69.2724 62.2274 69.2825 62.2005C69.5488 61.4959 69.8152 60.7914 70.0823 60.087C70.3361 59.4175 70.5906 58.7483 70.8451 58.079C70.8911 57.9583 70.8926 57.9573 70.7832 57.8939C70.1995 57.555 69.6152 57.2173 69.0317 56.8784C68.5519 56.5998 68.0729 56.3199 67.5935 56.0406C67.4289 55.9448 67.2642 55.8492 67.0995 55.7535C67.0852 55.7452 67.0703 55.7379 67.0563 55.7289C67.0189 55.7052 66.9923 55.6731 67.002 55.6266C67.0121 55.5781 67.0559 55.5684 67.0961 55.5573C67.104 55.5551 67.1125 55.5546 67.1207 55.5549C67.4022 55.5622 67.6841 55.5403 67.9651 55.5689C67.998 55.5723 68.0313 55.5719 68.0645 55.572C68.7775 55.5732 69.4905 55.5743 70.2035 55.5754C70.2242 55.5755 70.245 55.5766 70.2656 55.575C70.3309 55.5698 70.3398 55.5592 70.3146 55.4979C70.2468 55.3334 70.1758 55.1701 70.1064 55.0062C69.7389 54.1369 69.3715 53.2676 69.0043 52.3982C68.9898 52.3639 68.9764 52.3289 68.9665 52.2932C68.9571 52.2588 68.9648 52.2264 68.9976 52.2063C69.0292 52.187 69.0624 52.1894 69.0901 52.2128C69.1184 52.2368 69.1448 52.2636 69.169 52.2918C69.3197 52.4679 69.4701 52.6442 69.6195 52.8215C69.825 53.0651 70.0297 53.3093 70.2342 53.5537C70.5183 53.8933 70.8019 54.2335 71.086 54.5732C71.2051 54.7156 71.3251 54.8573 71.4486 55.0041C71.4948 54.9767 71.4931 54.9414 71.5011 54.9099C71.6656 54.2648 71.8297 53.6196 71.9952 52.9747C72.1535 52.3579 72.3133 51.7415 72.4726 51.125C72.4767 51.109 72.4841 51.0938 72.4882 51.0778C72.5007 51.0283 72.5259 50.9926 72.5828 51.0013C72.6353 51.0094 72.6582 51.0479 72.6652 51.0971C72.6989 51.3343 72.7322 51.5715 72.7659 51.8087C72.8047 52.0826 72.8446 52.3564 72.8825 52.6305C72.9198 52.9005 72.9543 53.1709 72.9917 53.4409C73.0291 53.7109 73.0693 53.9805 73.1068 54.2504C73.1357 54.4591 73.1624 54.6681 73.1901 54.8769C73.1911 54.8851 73.1905 54.8935 73.1917 54.9017C73.2027 54.9766 73.2215 54.9888 73.2873 54.9548C73.3607 54.9167 73.432 54.8744 73.5038 54.8328C74.1165 54.4783 74.7288 54.1229 75.3418 53.7687C75.6787 53.574 76.0168 53.381 76.3544 53.1876C76.376 53.1752 76.3982 53.1639 76.4213 53.1546C76.4621 53.1382 76.4942 53.1556 76.5191 53.1868C76.5418 53.2151 76.5478 53.2481 76.5256 53.2789C76.487 53.3324 76.4469 53.3851 76.4055 53.4365C75.9149 54.0458 75.4239 54.6547 74.9333 55.264C74.8373 55.3832 74.7431 55.504 74.648 55.624C74.5835 55.7052 74.5846 55.7282 74.6683 55.7966C74.8158 55.9169 74.9658 56.0342 75.1131 56.1546C75.4144 56.4009 75.7143 56.6486 76.0152 56.8954C76.3095 57.1369 76.6042 57.378 76.8989 57.6191C76.9494 57.6605 77.0209 57.6961 76.9942 57.776C76.9666 57.8586 76.8861 57.8373 76.8227 57.8374" fill="#B2BFB3"/>
<path fill-rule="evenodd" clip-rule="evenodd" d="M22.7039 37.4982C23.1124 38.7625 23.5208 40.0266 23.9291 41.291C24.1904 42.1003 24.4517 42.9097 24.7127 43.7192C24.7317 43.7782 24.7464 43.8386 24.7661 43.8974C24.7835 43.9496 24.7828 43.9978 24.735 44.0309C24.6822 44.0676 24.6262 44.0599 24.5819 44.0159C24.4937 43.9284 24.4064 43.8397 24.3238 43.7468C24.0804 43.473 23.8407 43.1961 23.5977 42.922C23.1116 42.3739 22.6246 41.8265 22.137 41.2795C21.794 40.8948 21.4493 40.5115 21.1056 40.1273C21.0146 40.0255 20.9237 39.9234 20.8345 39.82C20.7758 39.752 20.7208 39.7335 20.6492 39.8073C20.3765 40.0884 20.1009 40.3667 19.8271 40.6467C19.7881 40.6866 19.7543 40.7316 19.7155 40.7716C19.1617 41.3429 18.6054 41.9118 18.0538 42.4852C17.5929 42.9642 17.1374 43.4486 16.6786 43.9298C16.6403 43.97 16.6011 44.0142 16.5534 44.0395C16.4569 44.0908 16.3778 44.0344 16.3879 43.925C16.3918 43.8828 16.4085 43.8411 16.4238 43.8008C16.8232 42.7438 17.2228 41.6871 17.6234 40.6305C18.0042 39.6263 18.3859 38.6224 18.7677 37.6185C18.8366 37.4374 18.8389 37.436 18.6748 37.3408C17.7993 36.8326 16.9229 36.326 16.0475 35.8177C15.3278 35.3996 14.6093 34.9799 13.8902 34.561C13.6434 34.4172 13.3963 34.2738 13.1493 34.1302C13.1279 34.1178 13.1054 34.1068 13.0844 34.0934C13.0284 34.0577 12.9884 34.0096 13.003 33.9398C13.0182 33.8671 13.0838 33.8525 13.1441 33.836C13.1559 33.8327 13.1688 33.8319 13.1811 33.8323C13.6033 33.8433 14.0261 33.8105 14.4477 33.8534C14.497 33.8584 14.547 33.8579 14.5968 33.858C15.6662 33.8598 16.7357 33.8615 17.8052 33.8631C17.8362 33.8632 17.8675 33.8649 17.8984 33.8625C17.9964 33.8547 18.0097 33.8388 17.9719 33.7469C17.8702 33.5 17.7636 33.2552 17.6596 33.0093C17.1084 31.7054 16.5572 30.4014 16.0064 29.0973C15.9848 29.0459 15.9645 28.9934 15.9498 28.9397C15.9356 28.8881 15.9471 28.8396 15.9964 28.8095C16.0438 28.7806 16.0937 28.7841 16.1351 28.8193C16.1776 28.8552 16.2172 28.8954 16.2535 28.9377C16.4796 29.2019 16.7052 29.4664 16.9293 29.7322C17.2375 30.0976 17.5446 30.464 17.8513 30.8306C18.2775 31.34 18.7028 31.8503 19.129 32.3598C19.3077 32.5735 19.4876 32.786 19.673 33.0061C19.7422 32.9651 19.7396 32.912 19.7517 32.8649C19.9984 31.8971 20.2445 30.9293 20.4927 29.962C20.7302 29.0369 20.9699 28.1123 21.2089 27.1874C21.2151 27.1634 21.2262 27.1407 21.2323 27.1167C21.2511 27.0424 21.2889 26.9889 21.3743 27.002C21.453 27.0141 21.4874 27.0718 21.4978 27.1457C21.5484 27.5015 21.5984 27.8572 21.6488 28.213C21.7071 28.6239 21.7669 29.0346 21.8237 29.4457C21.8797 29.8507 21.9315 30.2564 21.9876 30.6614C22.0437 31.0664 22.104 31.4707 22.1602 31.8756C22.2036 32.1886 22.2436 32.5021 22.2851 32.8153C22.2867 32.8276 22.2857 32.8403 22.2875 32.8526C22.304 32.965 22.3323 32.9832 22.4309 32.9322C22.5411 32.875 22.6481 32.8115 22.7556 32.7493C23.6747 32.2174 24.5932 31.6843 25.5127 31.153C26.0181 30.8609 26.5251 30.5716 27.0316 30.2813C27.0639 30.2628 27.0974 30.2458 27.1319 30.232C27.1931 30.2073 27.2412 30.2334 27.2787 30.2802C27.3127 30.3226 27.3217 30.3721 27.2884 30.4183C27.2305 30.4987 27.1704 30.5776 27.1082 30.6548C26.3723 31.5687 25.6358 32.482 24.8999 33.396C24.7559 33.5748 24.6147 33.756 24.472 33.9359C24.3752 34.0578 24.3769 34.0923 24.5025 34.1949C24.7237 34.3753 24.9487 34.5513 25.1697 34.732C25.6216 35.1014 26.0715 35.4729 26.5227 35.8431C26.9643 36.2053 27.4063 36.567 27.8483 36.9286C27.9242 36.9908 28.0314 37.0441 27.9913 37.164C27.95 37.288 27.8291 37.256 27.734 37.2561" fill="#FFDE9A"/>
<path fill-rule="evenodd" clip-rule="evenodd" d="M166.489 64C167.498 63.9977 168.413 64.6211 168.803 65.5785C169.217 66.5942 168.965 67.7674 168.167 68.5056C167.753 68.8879 167.263 69.1033 166.701 69.1508C165.743 69.2316 164.788 68.7241 164.306 67.8057C163.797 66.8382 163.932 65.6695 164.646 64.842C165.106 64.308 165.788 63.9964 166.489 64Z" fill="#7D8897"/>
<path fill-rule="evenodd" clip-rule="evenodd" d="M65.4885 11C66.4982 10.9977 67.4125 11.6211 67.8031 12.5785C68.2175 13.5942 67.965 14.7674 67.1666 15.5056C66.7533 15.8879 66.2629 16.1033 65.7005 16.1508C64.7427 16.2316 63.7883 15.7241 63.3056 14.8057C62.7971 13.8382 62.9318 12.6695 63.6455 11.842C64.1061 11.308 64.7881 10.9964 65.4885 11Z" fill="#7D8897"/>
<path fill-rule="evenodd" clip-rule="evenodd" d="M216.493 39C217.099 38.9986 217.648 39.3726 217.882 39.9471C218.13 40.5565 217.979 41.2605 217.5 41.7034C217.252 41.9327 216.958 42.062 216.62 42.0905C216.046 42.139 215.473 41.8345 215.183 41.2834C214.878 40.7029 214.959 40.0017 215.387 39.5052C215.664 39.1848 216.073 38.9978 216.493 39Z" fill="#B9A9B9"/>
</svg>
